HIERARCHY
ROOT Hips
{
	OFFSET 0.000000 83.214638 0.000000
	CHANNELS 6 Xposition Yposition Zposition Xrotation Yrotation Zrotation
	JOINT Pelvis
	{
		OFFSET 0.000000 0.000000 0.000000
		CHANNELS 3 Xrotation Yrotation Zrotation
		JOINT LeftUpLeg
		{
			OFFSET 8.479700 -4.795502 -0.379100
			CHANNELS 3 Xrotation Yrotation Zrotation
			JOINT LeftLeg
			{
				OFFSET 0.024144 -32.555107 0.112900
				CHANNELS 3 Xrotation Yrotation Zrotation
				JOINT LeftFoot
				{
					OFFSET -0.024144 -32.638630 -3.012600
					CHANNELS 3 Xrotation Yrotation Zrotation
					JOINT LeftToeBase
					{
						OFFSET 0.970200 -13.225400 11.864200
						CHANNELS 3 Xrotation Yrotation Zrotation
						End Site
						{
							OFFSET 0.000000 12.319262 0.000000
						}
					}
					JOINT LFootTongue
					{
						OFFSET 1.142400 -1.059800 6.665200
						CHANNELS 3 Xrotation Yrotation Zrotation
						End Site
						{
							OFFSET 0.000000 12.319262 0.000000
						}
					}
				}
				JOINT LeftPantLeg
				{
					OFFSET 0.918482 -16.533964 -2.284700
					CHANNELS 3 Xrotation Yrotation Zrotation
					End Site
					{
						OFFSET 0.350399 24.744368 0.000000
					}
				}
			}
		}
		JOINT RightUpLeg
		{
			OFFSET -8.479700 -4.795502 -0.379100
			CHANNELS 3 Xrotation Yrotation Zrotation
			JOINT RightLeg
			{
				OFFSET -0.023144 -32.555092 0.112900
				CHANNELS 3 Xrotation Yrotation Zrotation
				JOINT RightFoot
				{
					OFFSET 0.023144 -32.638641 -3.012700
					CHANNELS 3 Xrotation Yrotation Zrotation
					JOINT RightToeBase
					{
						OFFSET -0.970200 -13.225400 11.864200
						CHANNELS 3 Xrotation Yrotation Zrotation
						End Site
						{
							OFFSET 0.000000 12.319244 0.000000
						}
					}
					JOINT RFootTongue
					{
						OFFSET -1.142200 -1.059800 6.665200
						CHANNELS 3 Xrotation Yrotation Zrotation
						End Site
						{
							OFFSET 0.000000 12.319243 0.000000
						}
					}
				}
				JOINT RightPantLeg
				{
					OFFSET -0.919482 -16.533978 -2.284800
					CHANNELS 3 Xrotation Yrotation Zrotation
					End Site
					{
						OFFSET -0.350400 24.744419 0.000000
					}
				}
			}
		}
	}
	JOINT Spine
	{
		OFFSET 0.000000 7.722000 1.166200
		CHANNELS 3 Xrotation Yrotation Zrotation
		JOINT Spine1
		{
			OFFSET 0.000000 12.024101 0.248800
			CHANNELS 3 Xrotation Yrotation Zrotation
			JOINT Spine2
			{
				OFFSET 0.000000 11.502998 -0.491200
				CHANNELS 3 Xrotation Yrotation Zrotation
				JOINT Neck
				{
					OFFSET 0.000000 18.430702 -3.123100
					CHANNELS 3 Xrotation Yrotation Zrotation
					JOINT Head
					{
						OFFSET 0.000000 9.051102 1.034000
						CHANNELS 3 Xrotation Yrotation Zrotation
						JOINT HairB
						{
							OFFSET 0.208400 24.786102 24.822300
							CHANNELS 3 Xrotation Yrotation Zrotation
							End Site
							{
								OFFSET 0.000000 32.263779 0.000000
							}
						}
						JOINT HairA
						{
							OFFSET -7.081100 24.428299 23.196600
							CHANNELS 3 Xrotation Yrotation Zrotation
							End Site
							{
								OFFSET 0.000000 32.263779 0.000000
							}
						}
						JOINT Hat
						{
							OFFSET 16.728800 15.048294 -15.439601
							CHANNELS 3 Xrotation Yrotation Zrotation
							End Site
							{
								OFFSET 0.000000 32.263779 0.000000
							}
						}
					}
				}
				JOINT LeftShoulder
				{
					OFFSET 6.197800 13.665199 -4.064700
					CHANNELS 3 Xrotation Yrotation Zrotation
					JOINT LeftArm
					{
						OFFSET 7.778100 -0.187103 -1.709300
						CHANNELS 3 Xrotation Yrotation Zrotation
						JOINT LeftForeArm
						{
							OFFSET 22.049376 0.000000 0.000000
							CHANNELS 3 Xrotation Yrotation Zrotation
							JOINT LeftHand
							{
								OFFSET 23.009392 0.000000 0.000000
								CHANNELS 3 Xrotation Yrotation Zrotation
								JOINT LeftHandThumb1
								{
									OFFSET 3.507191 -2.063065 3.133727
									CHANNELS 3 Xrotation Yrotation Zrotation
									JOINT LeftHandThumb2
									{
										OFFSET 3.101337 -1.790558 1.790558
										CHANNELS 3 Xrotation Yrotation Zrotation
										JOINT LeftHandThumb3
										{
											OFFSET 3.058640 -1.765907 1.765906
											CHANNELS 3 Xrotation Yrotation Zrotation
											End Site
											{
												OFFSET -0.415260 3.926476 -0.049563
											}
										}
									}
								}
								JOINT LeftHandIndex1
								{
									OFFSET 11.334419 -0.901459 3.706815
									CHANNELS 3 Xrotation Yrotation Zrotation
									JOINT LeftHandIndex2
									{
										OFFSET 3.283112 0.000000 0.000000
										CHANNELS 3 Xrotation Yrotation Zrotation
										JOINT LeftHandIndex3
										{
											OFFSET 3.323853 0.000000 0.000000
											CHANNELS 3 Xrotation Yrotation Zrotation
											End Site
											{
												OFFSET -1.135597 3.097809 0.402452
											}
										}
									}
								}
								JOINT LeftHandMiddle1
								{
									OFFSET 11.335861 0.000000 0.000000
									CHANNELS 3 Xrotation Yrotation Zrotation
									JOINT LeftHandMiddle2
									{
										OFFSET 3.410492 0.000000 0.000000
										CHANNELS 3 Xrotation Yrotation Zrotation
										JOINT LeftHandMiddle3
										{
											OFFSET 3.312172 0.000000 0.000000
											CHANNELS 3 Xrotation Yrotation Zrotation
											End Site
											{
												OFFSET -1.150200 3.080154 0.400270
											}
										}
									}
								}
								JOINT LeftHandRing1
								{
									OFFSET 11.514786 -0.013176 -3.003090
									CHANNELS 3 Xrotation Yrotation Zrotation
									JOINT LeftHandRing2
									{
										OFFSET 3.053307 0.000000 0.000000
										CHANNELS 3 Xrotation Yrotation Zrotation
										JOINT LeftHandRing3
										{
											OFFSET 3.295807 0.000000 0.000000
											CHANNELS 3 Xrotation Yrotation Zrotation
											End Site
											{
												OFFSET -1.281006 3.013344 0.375733
											}
										}
									}
								}
								JOINT LeftHandPinky1
								{
									OFFSET 10.518692 -0.960396 -5.730441
									CHANNELS 3 Xrotation Yrotation Zrotation
									JOINT LeftHandPinky2
									{
										OFFSET 2.861649 0.000000 0.000000
										CHANNELS 3 Xrotation Yrotation Zrotation
										JOINT LeftHandPinky3
										{
											OFFSET 2.863380 0.000000 0.000000
											CHANNELS 3 Xrotation Yrotation Zrotation
											End Site
											{
												OFFSET -0.843597 2.711159 0.369971
											}
										}
									}
								}
							}
							JOINT LSleeve
							{
								OFFSET 6.676277 -0.344902 -1.011730
								CHANNELS 3 Xrotation Yrotation Zrotation
								End Site
								{
									OFFSET 0.000000 14.885353 0.000000
								}
							}
						}
					}
				}
				JOINT RightShoulder
				{
					OFFSET -6.197800 13.665199 -4.064700
					CHANNELS 3 Xrotation Yrotation Zrotation
					JOINT RightArm
					{
						OFFSET -7.778100 -0.187103 -1.709300
						CHANNELS 3 Xrotation Yrotation Zrotation
						JOINT RightForeArm
						{
							OFFSET -22.049376 0.000000 0.000000
							CHANNELS 3 Xrotation Yrotation Zrotation
							JOINT RightHand
							{
								OFFSET -23.009392 0.000000 0.000000
								CHANNELS 3 Xrotation Yrotation Zrotation
								JOINT RightHandThumb1
								{
									OFFSET -3.507191 -2.063065 3.133727
									CHANNELS 3 Xrotation Yrotation Zrotation
									JOINT RightHandThumb2
									{
										OFFSET -3.101337 -1.790558 1.790558
										CHANNELS 3 Xrotation Yrotation Zrotation
										JOINT RightHandThumb3
										{
											OFFSET -3.058640 -1.765907 1.765906
											CHANNELS 3 Xrotation Yrotation Zrotation
											End Site
											{
												OFFSET 0.415260 3.926476 -0.049563
											}
										}
									}
								}
								JOINT RightHandIndex1
								{
									OFFSET -11.334419 -0.901459 3.706815
									CHANNELS 3 Xrotation Yrotation Zrotation
									JOINT RightHandIndex2
									{
										OFFSET -3.283112 0.000000 0.000000
										CHANNELS 3 Xrotation Yrotation Zrotation
										JOINT RightHandIndex3
										{
											OFFSET -3.323853 0.000000 0.000000
											CHANNELS 3 Xrotation Yrotation Zrotation
											End Site
											{
												OFFSET 1.135597 3.097809 0.402452
											}
										}
									}
								}
								JOINT RightHandMiddle1
								{
									OFFSET -11.335861 0.000000 0.000000
									CHANNELS 3 Xrotation Yrotation Zrotation
									JOINT RightHandMiddle2
									{
										OFFSET -3.410492 0.000000 0.000000
										CHANNELS 3 Xrotation Yrotation Zrotation
										JOINT RightHandMiddle3
										{
											OFFSET -3.312172 0.000000 0.000000
											CHANNELS 3 Xrotation Yrotation Zrotation
											End Site
											{
												OFFSET 1.150200 3.080154 0.400270
											}
										}
									}
								}
								JOINT RightHandRing1
								{
									OFFSET -11.514786 -0.013176 -3.003090
									CHANNELS 3 Xrotation Yrotation Zrotation
									JOINT RightHandRing2
									{
										OFFSET -3.053307 0.000000 0.000000
										CHANNELS 3 Xrotation Yrotation Zrotation
										JOINT RightHandRing3
										{
											OFFSET -3.295807 0.000000 0.000000
											CHANNELS 3 Xrotation Yrotation Zrotation
											End Site
											{
												OFFSET 1.281006 3.013344 0.375733
											}
										}
									}
								}
								JOINT RightHandPinky1
								{
									OFFSET -10.518692 -0.960396 -5.730441
									CHANNELS 3 Xrotation Yrotation Zrotation
									JOINT RightHandPinky2
									{
										OFFSET -2.861649 0.000000 0.000000
										CHANNELS 3 Xrotation Yrotation Zrotation
										JOINT RightHandPinky3
										{
											OFFSET -2.863380 0.000000 0.000000
											CHANNELS 3 Xrotation Yrotation Zrotation
											End Site
											{
												OFFSET 0.843597 2.711159 0.369971
											}
										}
									}
								}
							}
							JOINT RSleeve
							{
								OFFSET -6.676277 -0.344902 -1.011730
								CHANNELS 3 Xrotation Yrotation Zrotation
								End Site
								{
									OFFSET 0.000000 14.885353 0.000000
								}
							}
						}
					}
				}
				JOINT Backpack
				{
					OFFSET 0.000000 -2.471497 36.677502
					CHANNELS 3 Xrotation Yrotation Zrotation
					End Site
					{
						OFFSET 0.000000 20.427315 0.000000
					}
				}
				JOINT Hood
				{
					OFFSET 0.000000 18.754097 -10.431000
					CHANNELS 3 Xrotation Yrotation Zrotation
					JOINT Hood1
					{
						OFFSET 0.000000 -5.011002 -7.685901
						CHANNELS 3 Xrotation Yrotation Zrotation
						End Site
						{
							OFFSET 0.000000 9.175140 0.000000
						}
					}
				}
				JOINT LHoodieString
				{
					OFFSET 5.250500 16.397697 3.089900
					CHANNELS 3 Xrotation Yrotation Zrotation
					JOINT LHoodieString1
					{
						OFFSET 0.257700 -6.364304 3.694600
						CHANNELS 3 Xrotation Yrotation Zrotation
						JOINT LHoodieString2
						{
							OFFSET 0.000000 -9.643799 2.679100
							CHANNELS 3 Xrotation Yrotation Zrotation
							End Site
							{
								OFFSET 0.000000 10.009018 0.000000
							}
						}
					}
				}
				JOINT RHoodieString
				{
					OFFSET -5.250500 16.397697 3.089900
					CHANNELS 3 Xrotation Yrotation Zrotation
					JOINT RHoodieString1
					{
						OFFSET -0.257700 -6.364304 3.694600
						CHANNELS 3 Xrotation Yrotation Zrotation
						JOINT RHoodieString2
						{
							OFFSET 0.000000 -9.643799 2.679100
							CHANNELS 3 Xrotation Yrotation Zrotation
							End Site
							{
								OFFSET 0.000000 10.009018 0.000000
							}
						}
					}
				}
			}
			JOINT LBackpack_Strap
			{
				OFFSET 15.223200 -7.719803 -6.610900
				CHANNELS 3 Xrotation Yrotation Zrotation
				End Site
				{
					OFFSET 0.000000 16.040596 0.000000
				}
			}
			JOINT RBackpack_Strap
			{
				OFFSET -15.223000 -7.719803 -6.610900
				CHANNELS 3 Xrotation Yrotation Zrotation
				End Site
				{
					OFFSET 0.000000 16.040596 0.000000
				}
			}
		}
	}
	JOINT BoyFacialAnim_Joint
	{
		OFFSET 1.000000 -82.208099 -1.550900
		CHANNELS 3 Xrotation Yrotation Zrotation
		End Site
		{
			OFFSET 0.000000 30.012791 0.000000
		}
	}
}
MOTION
Frames: 4
Frame Time: 0.016667
5.493806 78.458046 87.569267 23.882332 24.438185 -7.534087 0.000001 -0.000000 -0.000000 -49.463315 6.973654 12.503342 47.820381 9.200113 -5.355028 0.587664 28.817436 -3.947200 0.000001 0.000001 0.000000 0.000001 0.000001 0.000001 -0.000000 -0.000003 0.000000 -52.093306 -4.332269 -4.903915 34.649577 -6.840896 -4.582891 -3.156184 -6.602768 4.986760 0.000000 0.000000 -0.000000 0.000000 0.000000 -0.000000 -0.000001 -0.000000 0.000000 11.225197 -0.841062 2.230458 6.689007 -2.739664 0.561830 6.767269 -2.647715 0.806087 -7.061399 0.651892 3.401813 -21.911033 3.055703 1.503037 0.000002 -0.000001 -0.000000 0.000002 -0.000001 -0.000000 0.000002 -0.000001 -0.000000 1.518826 -7.209061 -6.123048 -29.320899 -21.016005 -35.448460 0.000001 -29.544946 0.000008 -8.273332 6.667476 0.376793 -4.818363 -0.388132 0.088363 7.450113 23.644281 2.310964 0.000000 -0.000000 -0.000004 1.392520 -4.289624 -18.514940 0.313201 1.891588 -18.800949 -0.000003 -0.000002 -0.000000 0.814281 5.226594 -29.279925 0.451076 2.256133 -22.609651 -0.000000 -0.000000 0.000000 3.703746 9.279069 -35.643813 0.291101 1.825438 -18.119696 -0.000001 0.000000 -0.000000 -8.001695 17.864367 -33.635526 0.395800 2.118642 -21.161565 -0.000000 0.000001 0.000002 -0.000002 0.000000 0.000002 2.382977 6.831227 2.707433 -16.474828 -9.604021 53.071601 0.000010 62.536570 0.000004 -3.641334 3.447583 -8.284682 -8.636242 11.618384 -0.482698 7.832939 -27.003860 -3.053106 -0.000001 0.000003 -0.000001 9.241562 2.976993 1.678334 0.692441 -2.445347 31.616550 0.000002 0.000001 0.000002 0.172072 -3.349972 13.232738 0.583245 -2.258513 28.956075 -0.000004 -0.000002 0.000001 1.536034 -6.518375 24.725592 0.620938 -2.325336 29.898982 0.000005 -0.000003 -0.000000 -5.391419 -16.960669 33.120827 0.696258 -2.451517 31.705697 -0.000003 -0.000001 -0.000003 0.000000 0.000001 -0.000001 -0.000001 0.000001 -0.000002 -0.000001 0.000001 -0.000002 -0.000001 0.000001 -0.000002 -0.000001 0.000001 -0.000002 -0.000001 0.000001 -0.000002 -0.000001 0.000001 0.000000 -0.000001 0.000001 -0.000002 -0.000001 0.000001 -0.000002 -0.000001 0.000001 0.000000 -0.000001 0.000001 -0.000001 -0.000001 0.000001 -0.000001 0.000001 -0.000000 -0.000000 
5.700448 79.296967 88.796021 24.080650 25.251510 -7.829915 -0.000001 -0.000001 0.000000 -49.681659 7.170444 11.455231 44.369042 9.341870 -5.352021 1.587343 29.478868 -4.317509 0.000000 -0.000001 0.000000 0.000000 -0.000001 0.000001 -0.000000 0.000001 -0.000001 -49.191712 -4.596786 -4.718519 31.510634 -6.736339 -4.591184 -2.923114 -7.505613 4.889861 -0.000000 -0.000000 0.000000 -0.000000 -0.000000 0.000000 -0.000000 0.000000 0.000000 10.990275 -0.349257 2.180159 6.739180 -2.514409 0.541703 6.813280 -2.447950 0.778873 -6.528698 0.281442 2.942689 -23.266322 1.506236 1.300734 0.000000 0.000001 -0.000000 0.000000 0.000001 -0.000000 0.000000 0.000001 -0.000000 1.571538 -7.049208 -6.199197 -27.840551 -21.494296 -35.479483 0.000002 -28.581698 -0.000020 -5.965535 5.303748 -2.777258 -4.821595 -0.408745 0.104048 7.450113 23.644284 2.310969 0.000001 0.000001 -0.000001 1.410543 -4.236780 -19.058282 0.332471 1.947240 -19.376229 0.000004 -0.000001 -0.000002 0.825869 5.247079 -29.510481 0.442718 2.235968 -22.396284 0.000001 0.000000 0.000000 3.686998 9.272149 -35.517551 0.258882 1.723910 -17.079354 -0.000001 0.000001 -0.000004 -8.021483 17.813859 -33.080276 0.333924 1.951384 -19.419160 0.000001 0.000001 -0.000000 0.000000 0.000001 0.000002 2.412605 6.644260 2.840663 -17.278020 -10.440143 53.740068 0.000006 64.466918 -0.000004 -4.319512 3.303195 -8.565999 -8.559269 11.392677 -0.383848 7.832938 -27.003870 -3.053108 -0.000004 -0.000003 0.000001 9.265298 2.897260 4.050148 0.831883 -2.658383 34.747751 -0.000000 0.000001 0.000000 0.218727 -3.531508 15.536811 0.689722 -2.440929 31.552708 -0.000003 0.000003 -0.000001 1.695775 -6.638558 26.794583 0.720458 -2.490241 32.267316 0.000001 -0.000001 -0.000001 -5.286584 -17.043248 35.032378 0.792368 -2.600550 33.886324 -0.000002 -0.000001 -0.000005 -0.000004 0.000004 -0.000003 -0.000003 -0.000000 -0.000000 -0.000003 -0.000000 -0.000000 -0.000003 -0.000000 -0.000000 -0.000003 -0.000000 -0.000000 -0.000003 -0.000000 -0.000000 -0.000003 0.000001 -0.000002 -0.000003 -0.000000 -0.000000 -0.000003 -0.000000 -0.000000 -0.000003 0.000001 -0.000002 0.000001 0.000000 -0.000001 0.000001 0.000000 -0.000001 -0.000001 -0.000001 0.000000 
5.881114 79.965485 90.034164 24.242974 26.108337 -8.142508 -0.000001 -0.000002 0.000000 -49.705076 7.244508 10.748655 40.869991 10.113470 -5.416079 3.621596 29.844170 -5.909992 0.000001 0.000000 0.000000 0.000001 0.000000 0.000001 0.000000 0.000002 -0.000000 -46.567127 -5.011205 -4.531606 28.904292 -6.553003 -4.593295 -2.932083 -8.395610 4.729102 0.000000 -0.000000 -0.000000 0.000000 -0.000000 -0.000000 0.000000 0.000000 -0.000000 10.740583 0.154051 2.169830 6.787119 -2.287286 0.523220 6.856934 -2.249070 0.744100 -6.145213 0.029306 2.502970 -24.587527 -0.208402 0.944949 -0.000000 -0.000000 -0.000000 -0.000000 -0.000000 -0.000000 -0.000000 -0.000000 -0.000000 1.618582 -6.835510 -6.264187 -26.441484 -21.915700 -35.489642 0.000004 -27.829493 -0.000002 -4.158957 3.707707 -5.268061 -4.822757 -0.415827 0.109427 7.450113 23.644286 2.310967 0.000000 0.000000 -0.000000 1.429684 -4.182419 -19.619247 0.359077 2.021272 -20.144847 0.000000 0.000001 -0.000003 0.838476 5.269149 -29.759353 0.446240 2.244500 -22.486511 0.000001 0.000001 0.000000 3.688303 9.275098 -35.508600 0.236540 1.649490 -16.320419 -0.000003 0.000000 0.000001 -8.038769 17.773826 -32.635603 0.284467 1.805059 -17.910366 0.000000 0.000000 -0.000000 -0.000001 0.000001 0.000003 2.446341 6.435830 2.980740 -17.981414 -11.167555 54.420601 0.000036 66.639506 -0.000024 -4.845001 3.164052 -9.542836 -8.466652 11.117452 -0.246924 7.832942 -27.003865 -3.053107 -0.000002 -0.000002 -0.000002 9.295338 2.878061 6.343592 0.977319 -2.856440 37.770338 -0.000001 -0.000000 -0.000002 0.270623 -3.704758 17.759742 0.799806 -2.611567 34.049931 -0.000003 0.000001 0.000000 1.852710 -6.746804 28.783476 0.815910 -2.635199 34.401586 -0.000003 -0.000001 0.000002 -5.180582 -17.111963 36.727355 0.873731 -2.717643 35.639650 0.000002 0.000002 0.000002 -0.000000 0.000000 0.000000 0.000001 -0.000001 0.000002 0.000001 -0.000001 0.000002 0.000001 -0.000001 0.000002 0.000001 -0.000001 0.000002 0.000001 -0.000001 0.000000 0.000002 0.000001 -0.000001 0.000001 -0.000001 0.000002 0.000001 -0.000001 0.000000 0.000002 0.000001 -0.000001 -0.000002 -0.000002 0.000000 -0.000002 -0.000002 0.000000 -0.000001 -0.000002 0.000000 
6.068944 80.458397 91.152901 24.340100 26.999608 -8.509759 -0.000000 0.000000 -0.000000 -49.806272 7.299175 10.184347 37.212411 10.108320 -5.403788 6.483307 29.802721 -8.324621 0.000001 -0.000001 0.000000 0.000001 -0.000001 -0.000000 -0.000001 -0.000001 0.000000 -44.294357 -5.546794 -4.353336 26.902411 -6.277940 -4.587240 -3.118182 -9.298423 4.587775 -0.000000 -0.000000 0.000000 -0.000000 -0.000000 0.000000 -0.000001 0.000001 -0.000000 10.477164 0.673892 2.178757 6.831991 -2.056081 0.504974 6.898566 -2.042590 0.728345 -5.916527 -0.334469 1.914443 -25.874872 -1.918018 0.673788 -0.000000 0.000001 0.000000 -0.000000 0.000001 0.000000 -0.000000 0.000001 0.000000 1.646207 -6.617209 -6.320240 -25.016642 -22.020562 -35.430220 -0.000008 -27.294800 -0.000014 -2.639176 2.137414 -7.461889 -4.821889 -0.409571 0.104700 7.450115 23.644283 2.310967 0.000000 0.000001 0.000001 1.449919 -4.126682 -20.196349 0.393218 2.111966 -21.091669 -0.000002 -0.000000 -0.000002 0.852122 5.292788 -30.026673 0.460312 2.278169 -22.843154 0.000001 -0.000001 -0.000003 3.705314 9.286607 -35.601811 0.223613 1.604726 -15.865469 0.000001 0.000001 -0.000000 -8.053271 17.745689 -32.316541 0.246344 1.682590 -16.657573 -0.000000 -0.000000 0.000003 -0.000001 0.000001 -0.000000 2.483101 6.243176 3.110967 -18.599628 -11.797022 55.140435 -0.000009 68.895346 0.000005 -5.221356 2.918460 -10.687367 -8.360221 10.798180 -0.075893 7.832939 -27.003860 -3.053106 -0.000002 0.000001 -0.000001 9.320958 2.929872 8.482592 1.121863 -3.033568 40.583092 -0.000003 -0.000002 0.000005 0.324898 -3.863897 19.826967 0.908260 -2.765103 36.361892 -0.000000 -0.000002 0.000001 2.000292 -6.840052 30.623481 0.900131 -2.754070 36.193323 -0.000000 -0.000005 -0.000002 -5.078682 -17.159252 38.110946 0.930546 -2.795074 36.821065 -0.000000 -0.000002 -0.000000 -0.000003 -0.000004 0.000001 0.000002 0.000001 0.000000 0.000002 0.000001 0.000000 0.000002 0.000001 0.000000 0.000002 0.000001 0.000000 0.000002 0.000001 0.000000 0.000003 0.000001 -0.000001 0.000002 0.000001 0.000000 0.000002 0.000001 0.000000 0.000003 0.000001 -0.000001 0.000001 0.000001 0.000000 0.000001 0.000001 0.000000 -0.000000 0.000000 -0.000000 
